<?xml version="1.0" encoding="utf-8"?>
<!-- Generator: Adobe Illustrator 25.3.0, SVG Export Plug-In . SVG Version: 6.00 Build 0)  -->
<svg version="1.1" id="Capa_1" xmlns="http://www.w3.org/2000/svg" xmlns:xlink="http://www.w3.org/1999/xlink" x="0px" y="0px"
	 viewBox="0 0 519 519" style="enable-background:new 0 0 519 519;" xml:space="preserve">
<g>
	<path d="M259.5,0C116.4,0,0,116.4,0,259.5S116.4,519,259.5,519S519,402.6,519,259.5S402.6,0,259.5,0z M259.5,468.8
		c-115.4,0-209.3-93.9-209.3-209.3S144.1,50.2,259.5,50.2s209.3,93.9,209.3,209.3S374.9,468.8,259.5,468.8z"/>
	<path d="M351.6,234.4h-67v-67c0-13.9-11.2-25.1-25.1-25.1s-25.1,11.2-25.1,25.1v67h-67c-13.9,0-25.1,11.2-25.1,25.1
		s11.2,25.1,25.1,25.1h67v67c0,13.9,11.2,25.1,25.1,25.1s25.1-11.2,25.1-25.1v-67h67c13.9,0,25.1-11.2,25.1-25.1
		S365.5,234.4,351.6,234.4z"/>
</g>
</svg>
