<svg width="473" height="374" viewBox="0 0 473 374" fill="none" xmlns="http://www.w3.org/2000/svg">
<path d="M107.639 191.771C123.248 191.771 135.902 179.109 135.902 163.491C135.902 147.872 123.248 135.21 107.639 135.21C92.0303 135.21 79.3768 147.872 79.3768 163.491C79.3768 179.109 92.0303 191.771 107.639 191.771Z" fill="#FF6584"/>
<path d="M282.729 195.512C282.729 251.19 249.651 270.631 208.846 270.631C168.042 270.631 134.963 251.19 134.963 195.512C134.963 139.834 208.846 69.0023 208.846 69.0023C208.846 69.0023 282.729 139.834 282.729 195.512Z" fill="#F9A826"/>
<path d="M206.155 262.114L206.911 215.516L238.402 157.868L207.03 208.207L207.37 187.254L229.073 145.547L207.46 181.71L208.072 144.026L231.312 110.822L208.168 138.101L208.55 69.0025L206.148 160.476L206.346 156.702L182.717 120.511L205.967 163.946L203.765 206.032L203.699 204.915L176.46 166.829L203.617 208.861L203.341 214.125L203.292 214.204L203.315 214.636L197.729 321.412H205.192L206.087 266.26L233.178 224.331L206.155 262.114Z" fill="#3F3D56"/>
<path d="M354.016 248.1C354.016 303.779 320.937 323.219 280.133 323.219C239.329 323.219 206.25 303.779 206.25 248.1C206.25 192.422 280.133 121.591 280.133 121.591C280.133 121.591 354.016 192.422 354.016 248.1Z" fill="#3F3D56"/>
<path d="M277.441 314.702L278.198 268.105L309.689 210.457L278.317 260.795L278.657 239.843L300.36 198.135L278.747 234.298V234.298L279.359 196.614L302.599 163.41L279.455 190.689L279.837 121.59L277.435 213.064L277.632 209.291L254.003 173.1L277.254 216.534L275.052 258.62L274.986 257.503L247.747 219.418L274.904 261.45L274.629 266.713L274.579 266.792L274.601 267.224L269.016 374H276.479L277.374 318.848L304.465 276.919L277.441 314.702Z" fill="#F2F2F2"/>
<path d="M215.085 248.1C215.085 303.779 182.006 323.219 141.202 323.219C100.397 323.219 67.3188 303.779 67.3188 248.1C67.3188 192.422 141.202 121.591 141.202 121.591C141.202 121.591 215.085 192.422 215.085 248.1Z" fill="#3F3D56"/>
<path d="M138.51 314.702L139.267 268.105L170.758 210.457L139.386 260.795L139.726 239.843L161.429 198.135L139.816 234.298V234.298L140.427 196.614L163.668 163.41L140.523 190.689L140.906 121.59L138.504 213.064L138.701 209.291L115.073 173.1L138.322 216.534L136.12 258.62L136.055 257.503L108.815 219.418L135.973 261.45L135.697 266.713L135.648 266.792L135.671 267.224L130.085 374H137.547L138.443 318.848L165.534 276.919L138.51 314.702Z" fill="#F2F2F2"/>
<path d="M210.727 373.529C175.39 373.53 141.146 361.269 113.831 338.837C86.5148 316.406 67.8169 285.19 60.9229 250.51C54.029 215.83 59.3654 179.83 76.0231 148.646C92.6807 117.461 119.629 93.0212 152.276 79.4896C184.923 65.958 221.249 64.1722 255.064 74.4365C288.879 84.7008 318.092 106.38 337.724 135.781C357.356 165.181 366.193 200.484 362.73 235.673C359.266 270.862 343.716 303.761 318.729 328.765C304.579 343.001 287.748 354.288 269.209 361.972C250.671 369.656 230.793 373.584 210.727 373.529ZM210.727 69.0229C127.15 69.0229 59.155 137.062 59.155 220.693C59.155 304.324 127.15 372.363 210.727 372.363C294.304 372.363 362.299 304.324 362.299 220.693C362.299 137.062 294.304 69.0229 210.727 69.0229Z" fill="#2F2E41"/>
<path d="M335.62 307.89V372.974H85.8564V307.89L210.738 242.805L210.998 242.94L335.62 307.89Z" fill="#F2F2F2"/>
<path opacity="0.1" d="M335.62 307.89V372.974H210.998V242.94L335.62 307.89Z" fill="black"/>
<path d="M200.071 282.637L190.705 286.175V272.223L200.071 268.115V282.637Z" fill="#3F3D56"/>
<path d="M96.5234 321.687L93.4015 322.869V314.398L96.5234 313.017V321.687Z" fill="#3F3D56"/>
<path d="M107.451 318.042L103.808 319.409V310.233L107.451 308.633V318.042Z" fill="#3F3D56"/>
<path d="M119.418 313.357L115.255 314.923V305.026L119.418 303.192V313.357Z" fill="#3F3D56"/>
<path d="M133.988 307.629L128.784 309.594V299.298L133.988 297.014V307.629Z" fill="#3F3D56"/>
<path d="M151.679 300.86L145.435 303.222V292.009L151.679 289.268V300.86Z" fill="#3F3D56"/>
<path d="M173.014 293.05L165.729 295.796V283.157L173.014 279.962V293.05Z" fill="#3F3D56"/>
<path d="M96.5234 338.869L93.4015 339.655V331.06L96.5234 330.072V338.869Z" fill="#3F3D56"/>
<path d="M107.451 336.267L103.808 337.179V327.936L107.451 326.787V336.267Z" fill="#3F3D56"/>
<path d="M119.418 333.142L115.255 334.189V324.291L119.418 322.977V333.142Z" fill="#3F3D56"/>
<path d="M133.988 329.498L128.784 330.805V320.125L133.988 318.487V329.498Z" fill="#3F3D56"/>
<path d="M151.679 324.811L145.435 326.388V314.918L151.679 312.953V324.811Z" fill="#3F3D56"/>
<path d="M173.014 319.605L165.208 321.569V308.671L173.014 306.213V319.605Z" fill="#3F3D56"/>
<path d="M200.071 312.836L190.705 315.192V300.86L200.071 297.92V312.836Z" fill="#3F3D56"/>
<path d="M200.071 342.514L190.705 343.707V329.498L200.071 327.725V342.514Z" fill="#3F3D56"/>
<path d="M96.5234 355.531L93.4015 355.933V347.721L96.5234 347.126V355.531Z" fill="#3F3D56"/>
<path d="M107.451 354.49L103.808 354.949V346.159L107.451 345.475V354.49Z" fill="#3F3D56"/>
<path d="M119.418 352.928L115.255 353.455V343.556L119.418 342.762V352.928Z" fill="#3F3D56"/>
<path d="M133.988 350.845L128.784 351.511V340.952L133.988 339.959V350.845Z" fill="#3F3D56"/>
<path d="M151.679 348.762L145.435 349.555V337.829L151.679 336.639V348.762Z" fill="#3F3D56"/>
<path d="M173.014 346.159L165.208 347.146V334.184L173.014 332.701V346.159Z" fill="#3F3D56"/>
<path d="M325.473 321.687L328.596 322.869V314.398L325.473 313.017V321.687Z" fill="#3F3D56"/>
<path d="M314.546 318.042L318.189 319.409V310.233L314.546 308.633V318.042Z" fill="#3F3D56"/>
<path d="M302.578 313.357L306.741 314.923V305.026L302.578 303.192V313.357Z" fill="#3F3D56"/>
<path d="M288.009 307.629L293.212 309.594V299.298L288.009 297.014V307.629Z" fill="#3F3D56"/>
<path d="M270.317 300.86L276.561 303.222V292.009L270.317 289.268V300.86Z" fill="#3F3D56"/>
<path d="M248.983 293.05L256.268 295.796V283.157L248.983 279.962V293.05Z" fill="#3F3D56"/>
<path d="M325.473 338.869L328.596 339.655V331.06L325.473 330.072V338.869Z" fill="#3F3D56"/>
<path d="M314.546 336.267L318.189 337.179V327.936L314.546 326.787V336.267Z" fill="#3F3D56"/>
<path d="M302.578 333.142L306.741 334.189V324.291L302.578 322.977V333.142Z" fill="#3F3D56"/>
<path d="M288.009 329.498L293.212 330.805V320.125L288.009 318.487V329.498Z" fill="#3F3D56"/>
<path d="M270.317 324.811L276.561 326.388V314.918L270.317 312.953V324.811Z" fill="#3F3D56"/>
<path d="M248.983 319.605L256.789 321.569V308.671L248.983 306.213V319.605Z" fill="#3F3D56"/>
<path d="M221.926 312.836L231.292 315.192V300.86L221.926 297.92V312.836Z" fill="#3F3D56"/>
<path d="M221.926 342.514L231.292 343.707V329.498L221.926 327.725V342.514Z" fill="#3F3D56"/>
<path d="M325.473 355.531L328.596 355.933V347.721L325.473 347.126V355.531Z" fill="#3F3D56"/>
<path d="M314.546 354.49L318.189 354.949V346.159L314.546 345.475V354.49Z" fill="#3F3D56"/>
<path d="M302.578 352.928L306.741 353.455V343.556L302.578 342.762V352.928Z" fill="#3F3D56"/>
<path d="M288.009 350.845L293.212 351.511V340.952L288.009 339.959V350.845Z" fill="#3F3D56"/>
<path d="M270.317 348.762L276.561 349.555V337.829L270.317 336.639V348.762Z" fill="#3F3D56"/>
<path d="M248.983 346.159L256.789 347.146V334.184L248.983 332.701V346.159Z" fill="#3F3D56"/>
<path d="M230.771 286.282L221.405 282.747V268.058L230.771 272.167V286.282Z" fill="#3F3D56"/>
<path d="M318.717 361.385H317.954V373.608H318.717V361.385Z" fill="#2F2E41"/>
<path d="M327.712 364.712H327.171V373.373H327.712V364.712Z" fill="#2F2E41"/>
<path d="M335.705 365.769H335.23V373.382H335.705V365.769Z" fill="#2F2E41"/>
<path d="M296.334 357.51V373.234L286.188 373.219L276.041 373.203V355.531L286.188 356.521L296.334 357.51Z" fill="#3F3D56"/>
<path d="M125.662 373.234L145.955 373.202V355.531L125.662 357.508V373.234Z" fill="#3F3D56"/>
<path d="M454.681 372.714H0V373.755H454.681V372.714Z" fill="#2F2E41"/>
<path opacity="0.1" d="M296.334 357.51V373.234L286.188 373.219V356.521L296.334 357.51Z" fill="black"/>
<path d="M209.698 358.916H208.657V373.495H209.698V358.916Z" fill="#2F2E41"/>
<path d="M215.183 353.725C215.183 358.834 212.456 363.097 209.177 363.244C205.99 363.386 203.47 359.563 203.47 354.709C203.47 349.854 209.698 336.527 209.698 336.527C209.698 336.527 215.183 348.617 215.183 353.725Z" fill="#F9A826"/>
<path d="M87.2676 363.588H86.6469V372.284H87.2676V363.588Z" fill="#2F2E41"/>
<path d="M90.5394 360.492C90.5394 363.539 88.9127 366.082 86.9573 366.17C85.0562 366.255 83.5533 363.974 83.5533 361.079C83.5533 358.183 87.2677 350.234 87.2677 350.234C87.2677 350.234 90.5394 357.445 90.5394 360.492Z" fill="#F9A826"/>
<path d="M322.534 361.867C322.534 364.765 320.709 367.028 318.335 366.917C315.815 366.799 313.654 364.078 313.654 360.847C313.654 357.616 318.335 349.543 318.335 349.543C318.335 349.543 322.534 358.969 322.534 361.867Z" fill="#F9A826"/>
<path d="M330.417 365.053C330.417 367.107 329.123 368.711 327.441 368.632C325.655 368.548 324.124 366.62 324.124 364.331C324.124 362.041 327.441 356.321 327.441 356.321C327.441 356.321 330.417 363 330.417 365.053Z" fill="#F9A826"/>
<path d="M338.082 366.07C338.082 367.875 336.946 369.284 335.467 369.215C333.898 369.141 332.552 367.447 332.552 365.435C332.552 363.422 335.467 358.395 335.467 358.395C335.467 358.395 338.082 364.265 338.082 366.07Z" fill="#F9A826"/>
<path d="M341.778 83.8791C341.778 83.8791 336.713 99.0832 339.527 102.462C342.34 105.841 322.644 92.3258 322.644 92.3258L333.336 79.9373L341.778 83.8791Z" fill="#A0616A"/>
<path d="M330.228 83.8544C344.182 83.8544 355.494 72.5349 355.494 58.5717C355.494 44.6084 344.182 33.2889 330.228 33.2889C316.273 33.2889 304.961 44.6084 304.961 58.5717C304.961 72.5349 316.273 83.8544 330.228 83.8544Z" fill="#2F2E41"/>
<path d="M428.441 255.065L415.498 265.202L408.182 253.376L421.125 244.366L428.441 255.065Z" fill="#A0616A"/>
<path d="M410.152 331.367L413.528 347.697L423.095 360.649C423.095 360.649 448.982 368.533 431.536 372.474C414.091 376.416 410.152 369.659 410.152 369.659L397.771 358.96V373.601H389.893L388.205 352.766C388.205 352.766 387.079 346.571 392.144 339.814L393.269 329.678L410.152 331.367Z" fill="#2F2E41"/>
<path d="M344.873 129.21L349.375 155.113C349.375 155.113 397.209 150.045 400.585 159.618C403.962 169.191 405.087 172.006 405.087 172.006L395.52 175.385L391.018 166.938C389.647 166.452 388.191 166.252 386.74 166.349C385.288 166.445 383.872 166.838 382.577 167.501C378.075 169.754 338.683 175.385 335.869 168.065C333.055 160.744 325.177 133.715 325.177 133.715L336.994 124.142L344.873 129.21Z" fill="#A0616A"/>
<path opacity="0.1" d="M344.873 129.21L349.375 155.113C349.375 155.113 397.209 150.045 400.585 159.618C403.962 169.191 405.087 172.006 405.087 172.006L395.52 175.385L391.018 166.938C389.647 166.452 388.191 166.252 386.74 166.349C385.288 166.445 383.872 166.838 382.577 167.501C378.075 169.754 338.683 175.385 335.869 168.065C333.055 160.744 325.177 133.715 325.177 133.715L336.994 124.142L344.873 129.21Z" fill="black"/>
<path d="M371.322 204.104L375.261 217.618L385.391 269.425C385.391 269.425 386.516 307.716 388.205 312.221C389.893 316.726 389.893 317.289 388.205 318.979C386.516 320.668 383.14 326.299 388.205 329.678C393.269 333.057 411.277 336.998 411.84 333.057C412.403 329.115 412.403 322.921 411.84 320.105C411.277 317.289 413.528 273.367 413.528 273.367L406.775 206.356L383.703 195.657L371.322 204.104Z" fill="#2F2E41"/>
<path opacity="0.1" d="M371.322 204.104L375.261 217.618L385.391 269.425C385.391 269.425 386.516 307.716 388.205 312.221C389.893 316.726 389.893 317.289 388.205 318.979C386.516 320.668 383.14 326.299 388.205 329.678C393.269 333.057 411.277 336.998 411.84 333.057C412.403 329.115 412.403 322.921 411.84 320.105C411.277 317.289 413.528 273.367 413.528 273.367L406.775 206.356L383.703 195.657L371.322 204.104Z" fill="black"/>
<path d="M395.52 151.171L407.901 174.822C407.901 174.822 478.807 206.356 472.617 219.308C466.427 232.259 432.099 256.473 432.099 256.473C432.099 256.473 430.411 266.046 425.346 263.231C420.281 260.415 407.901 245.774 409.026 244.085C410.152 242.395 414.091 238.454 415.779 239.017C417.468 239.58 437.164 224.376 437.164 224.376L403.399 215.929C403.399 215.929 362.881 214.803 360.63 195.657C358.379 176.511 360.63 173.132 360.63 173.132L357.816 166.938L380.889 152.86L395.52 151.171Z" fill="#2F2E41"/>
<path d="M412.966 244.648L401.148 255.347C401.148 255.347 391.018 250.842 384.828 252.531C378.638 254.221 367.946 255.347 367.946 255.347L369.634 264.92L383.992 262.269L372.448 278.435C372.448 278.435 372.448 303.775 379.763 303.775C387.079 303.775 384.828 288.571 384.828 288.571L407.338 271.114C407.338 271.114 418.593 266.609 419.719 266.609C420.844 266.609 412.966 244.648 412.966 244.648Z" fill="#2F2E41"/>
<path d="M339.527 88.384C350.094 88.384 358.66 79.8121 358.66 69.2381C358.66 58.6642 350.094 50.0923 339.527 50.0923C328.959 50.0923 320.393 58.6642 320.393 69.2381C320.393 79.8121 328.959 88.384 339.527 88.384Z" fill="#A0616A"/>
<path d="M320.675 84.1606C320.675 84.1606 329.679 81.9082 332.492 84.1606C335.306 86.4131 335.869 91.4811 339.808 92.0442C343.747 92.6073 347.124 92.6073 347.687 93.1704C348.249 93.7335 361.193 109.501 361.193 109.501C361.193 109.501 369.071 114.006 370.759 120.2C372.448 126.394 389.33 147.229 391.581 149.482C393.832 151.734 376.95 162.996 371.322 166.938C365.695 170.88 349.375 172.569 344.31 163.56C339.245 154.55 311.671 95.986 320.675 84.1606Z" fill="#DEB82D"/>
<path d="M342.059 120.763L346.561 146.666C346.561 146.666 394.395 141.598 397.771 151.171C401.148 160.744 402.273 163.56 402.273 163.56L392.707 166.938L388.205 158.492C386.833 158.006 385.377 157.805 383.926 157.902C382.474 157.999 381.058 158.391 379.763 159.055C375.261 161.307 335.869 166.938 333.055 159.618C330.241 152.297 322.363 125.268 322.363 125.268L334.181 115.695L342.059 120.763Z" fill="#A0616A"/>
<path d="M331.305 86.5298C331.305 86.5298 344.873 115.132 343.747 123.015C342.622 130.899 338.682 125.268 338.682 125.268C338.682 125.268 333.618 117.384 331.367 121.889C329.116 126.394 326.302 132.588 324.051 132.025C321.8 131.462 309.42 89.7918 316.173 85.85C322.926 81.9082 331.305 86.5298 331.305 86.5298Z" fill="#DEB82D"/>
<path d="M302.856 50.5655C316.81 50.5655 328.122 39.246 328.122 25.2827C328.122 11.3195 316.81 0 302.856 0C288.901 0 277.589 11.3195 277.589 25.2827C277.589 39.246 288.901 50.5655 302.856 50.5655Z" fill="#2F2E41"/>
<path d="M281.062 46.2184C284.332 48.5836 288.121 50.1306 292.111 50.7302C296.102 51.3297 300.177 50.9643 303.998 49.6645C307.818 48.3647 311.271 46.1684 314.069 43.2592C316.867 40.35 318.928 36.8126 320.08 32.9429C319.644 36.4107 318.495 39.7505 316.704 42.7514C314.913 45.7522 312.52 48.3489 309.676 50.3776C306.831 52.4062 303.598 53.8228 300.179 54.5378C296.76 55.2528 293.23 55.2507 289.811 54.5316C286.393 53.8126 283.161 52.3922 280.319 50.3601C277.477 48.3281 275.087 45.7285 273.3 42.7256C271.513 39.7226 270.367 36.3815 269.936 32.9131C269.504 29.4448 269.796 25.9245 270.792 22.5746C270.226 27.0752 270.881 31.6452 272.688 35.8053C274.495 39.9654 277.387 43.5622 281.062 46.2184Z" fill="#2F2E41"/>
<path d="M325.03 81.3261C335.263 81.3261 343.559 73.0252 343.559 62.7854C343.559 52.5457 335.263 44.2448 325.03 44.2448C314.797 44.2448 306.502 52.5457 306.502 62.7854C306.502 73.0252 314.797 81.3261 325.03 81.3261Z" fill="#2F2E41"/>
<path d="M339.071 68.6847C348.141 68.6847 355.494 62.9306 355.494 55.8326C355.494 48.7346 348.141 42.9806 339.071 42.9806C330.001 42.9806 322.648 48.7346 322.648 55.8326C322.648 62.9306 330.001 68.6847 339.071 68.6847Z" fill="#2F2E41"/>
<path d="M339.808 77.6848C341.828 77.6848 343.466 74.7855 343.466 71.209C343.466 67.6325 341.828 64.7332 339.808 64.7332C337.788 64.7332 336.15 67.6325 336.15 71.209C336.15 74.7855 337.788 77.6848 339.808 77.6848Z" fill="#A0616A"/>
<path d="M390.019 166.692C390.019 166.692 399.981 160.973 401.831 162.407C403.68 163.841 404.502 168.329 404.502 168.329L392.988 172.851L389.611 166.657L390.019 166.692Z" fill="#2F2E41"/>
</svg>
